# xmcd
# 
# Track frame offsets:
#     150
#     20650
#     42937
#     72002
# 
# Disc length: 1181
# 
# Revision: 11
# Processed by: cddbd v1.5.2PL0 Copyright (c) Steve Scherf et al.
# Submitted via: fre:ac v1.0.17
# 
DISCID=2d049b04
DTITLE=Michael Jackson - Heal The World (1992)
DYEAR=0
DGENRE=Pop
TTITLE0=Heal The World (7'' Edit)
TTITLE1=Heal The World (7'' Edit With Intro)
TTITLE2=Heal The World (LP Version)
TTITLE3=She Drives Me Wild
EXTD=
EXTT0=
EXTT1=
EXTT2=
EXTT3=
PLAYORDER=
